<svg xmlns="http://www.w3.org/2000/svg" fill="none" viewBox="0 0 104 44" height="44" width="104">
<path fill="white" d="M2.50547 29.6185L2.46179 29.8276C2.5035 29.6281 2.50547 29.6189 2.50567 29.6185C2.50574 29.6186 2.50593 29.6186 2.50607 29.6186C2.50635 29.6187 2.50672 29.6187 2.50718 29.6188C2.50813 29.619 2.50949 29.6194 2.5112 29.6197C2.51467 29.6205 2.5197 29.6215 2.5262 29.623C2.53921 29.6258 2.55825 29.63 2.58297 29.6357C2.63241 29.6472 2.70471 29.6644 2.79735 29.688C2.98259 29.7352 3.24942 29.8079 3.57807 29.9102C4.23512 30.1148 5.14078 30.4387 6.13704 30.9159C8.12586 31.8685 10.4959 33.442 11.9552 35.9189L12.1498 36.2507C14.1085 39.6031 14.4648 40.6319 16.621 43.2258C16.7855 43.4237 16.6554 43.7193 16.4076 43.7441C11.3997 44.2447 8.22735 41.4113 6.13543 38.1623C5.08995 36.5386 4.30818 34.8032 3.69563 33.3128C3.39037 32.5701 3.12341 31.8789 2.89085 31.3022C2.65572 30.7191 2.45528 30.2519 2.27559 29.9323L2.0451 29.5222L2.50547 29.6185ZM2.86277 30.147C2.99581 30.4321 3.13646 30.7688 3.2871 31.1423C3.52384 31.7294 3.78517 32.4068 4.09077 33.1504C4.69993 34.6325 5.47012 36.3398 6.49464 37.931C8.5132 41.0661 11.4955 43.7194 16.1593 43.3375C14.0234 40.7422 13.6575 39.6502 11.5871 36.1358C10.1887 33.7621 7.90397 32.2358 5.95255 31.3012C4.97873 30.8347 4.09288 30.5181 3.45095 30.3181C3.22104 30.2465 3.02255 30.1901 2.86277 30.147Z"></path>
<path fill="white" d="M6.10352e-05 43.9988C6.10352e-05 43.9152 0.000608717 43.8301 0.0014701 43.7436C0.00206144 43.6363 0.00275731 43.4964 0.00368436 43.3271C0.00604077 42.8967 0.00945297 42.2762 0.0135478 41.5155C0.0217378 39.9942 0.0328093 37.9122 0.0442454 35.67C0.0671152 31.1861 0.0914914 26.0615 0.0976894 23.4966C0.0239589 20.9206 0.193293 18.4614 1.20703 16.0718C2.22244 13.6783 4.07591 11.3753 7.33527 9.09323C14.1629 3.91819 16.1915 1.13159 16.7505 0.16275L16.7594 0.148055C16.8544 0.00117507 17.0266 -0.0112484 17.1236 0.00594061C17.2195 0.0229449 17.3839 0.0956562 17.4146 0.275576L17.4173 0.29329L17.5666 1.56326L17.567 1.56729C17.7236 3.15878 17.6524 5.37541 17.4462 7.4265C17.2407 9.4712 16.8977 11.3866 16.4972 12.3629C15.2043 15.5146 13.2564 18.8781 7.5889 23.1446C5.30834 24.8614 3.98114 26.2701 3.10585 27.8443C2.22931 29.4208 1.796 31.18 1.33284 33.6237C1.03801 35.7492 0.459505 40.6525 0.428619 43.7467C0.428461 43.7755 0.42835 43.802 0.428217 43.8261C0.427903 43.883 0.427674 43.9265 0.427512 43.9557C0.427431 43.9703 0.427352 43.9814 0.427311 43.9888C0.42729 43.9925 0.427321 43.9953 0.427311 43.9972C0.427306 43.9981 0.427213 43.9988 0.42721 43.9993C0.427209 43.9995 0.427211 43.9997 0.42721 43.9998C0.42661 43.9999 0.415607 43.9999 0.213636 43.9988L0.42721 44L6.10352e-05 43.9988ZM17.017 0.548332C16.2964 1.70989 14.0915 4.50873 7.58941 9.43664L7.58619 9.43916L7.58287 9.44147C4.37241 11.6887 2.57825 13.9336 1.60036 16.2386C0.62128 18.5465 0.451371 20.9353 0.524839 23.49L0.524939 23.4933V23.4966C0.518744 26.0619 0.494267 31.1878 0.471395 35.6722C0.468666 36.2072 0.465793 36.7331 0.463142 37.2444C0.622213 35.7578 0.790211 34.4254 0.91032 33.56L0.911024 33.5548L0.912031 33.5496C1.37605 31.1007 1.8189 29.2798 2.73245 27.6368C3.6479 25.9903 5.02615 24.539 7.33195 22.8032C12.9367 18.5839 14.8375 15.2829 16.1019 12.2007C16.4766 11.2874 16.8157 9.42763 17.0211 7.38383C17.2257 5.34819 17.2944 3.16486 17.1423 1.61319L17.017 0.548332Z"></path>
<path fill="white" d="M89.6916 13.5888C89.6916 20.9504 103.051 18.0681 103.051 27.1823C103.051 31.4668 99.9744 34.1544 94.6383 34.1544C92.1844 34.1544 89.9253 33.3754 88.0947 32.4406V30.7657C89.8474 31.8174 92.4181 32.7132 94.6383 32.7132C98.8059 32.7132 101.416 30.7268 101.416 27.1823C101.416 19.2755 88.0947 22.3136 88.0947 13.5888C88.0947 9.53801 90.8991 7.27892 95.3783 7.27892C98.1827 7.27892 100.169 8.05791 102 8.99271V10.6676C100.247 9.61591 97.949 8.72006 95.3783 8.72006C91.8339 8.72006 89.6916 10.2391 89.6916 13.5888Z"></path>
<path fill="white" d="M78.4912 33.7649L74.6741 24.1053H63.1449L59.3278 33.7649H57.5751L68.1695 7.66846H69.8054L80.2829 33.7649H78.4912ZM63.7292 22.6642H74.0899L69.1432 10.0834L68.9874 9.0317H68.9095L68.7537 10.0834L63.7292 22.6642Z"></path>
<path fill="white" d="M33.6519 33.7649V7.66846H35.2878V33.7649H33.6519ZM38.5596 20.1714L51.5299 33.7649H49.3877L36.3005 19.9766L48.1024 7.66846H50.1278L38.5596 19.7819L38.0533 19.9377V20.0156L38.5596 20.1714Z"></path>
<path fill="white" d="M99.9602 39.1776C99.9602 40.7574 103 40.2031 103 42.3094C103 43.3626 102.27 44 100.976 44C100.348 44 99.8124 43.8152 99.3782 43.5935V42.993C99.7939 43.2517 100.404 43.4827 100.976 43.4827C101.817 43.4827 102.408 43.1131 102.408 42.3094C102.408 40.6373 99.369 41.2562 99.369 39.1776C99.369 38.2169 100.034 37.6256 101.161 37.6256C101.826 37.6256 102.288 37.8104 102.722 38.0321V38.6326C102.307 38.3739 101.771 38.143 101.161 38.143C100.385 38.143 99.9602 38.4571 99.9602 39.1776Z"></path>
<path fill="white" d="M93.4521 43.3903H96.4545L96.4084 43.9077H92.8701V37.7181H96.2698V38.2354H93.4521V40.4803H96.085L96.0388 40.9976H93.4521V43.3903Z"></path>
<path fill="white" d="M88.2132 38.143C86.9661 38.143 85.8575 38.8728 85.8575 40.8128C85.8575 42.7528 87.0307 43.4827 88.2132 43.4827C88.9153 43.4827 89.6174 43.2517 90.0332 42.993V43.5935C89.599 43.8152 88.9708 44 88.2132 44C86.7813 44 85.2385 43.2055 85.2385 40.8128C85.2385 38.4201 86.7813 37.6256 88.2132 37.6256C88.9708 37.6256 89.599 37.8104 90.0332 38.0321V38.6326C89.6174 38.3739 88.9153 38.143 88.2132 38.143Z"></path>
<path fill="white" d="M81.8044 37.7181H82.3957V43.9077H81.5458L78.1369 38.5588L78.0352 38.2539H78.0168V43.9077H77.4348V37.7181H78.2754L81.6843 43.0578L81.786 43.4273H81.8044V37.7181Z"></path>
<path fill="white" d="M73.9083 43.9077L73.0676 41.7459H70.4624L69.6125 43.9077H68.9935L71.5063 37.7181H72.0883L74.5642 43.9077H73.9083ZM70.6749 41.2286H72.8643L71.8204 38.531L71.7835 38.2262H71.765L71.728 38.531L70.6749 41.2286Z"></path>
<path fill="white" d="M65.9791 43.9076L64.0668 41.09C63.7065 41.0807 63.3647 41.0622 63.0414 41.0438V43.9076H62.4594V37.718C63.0229 37.6718 63.5772 37.6256 64.2331 37.6256C65.2678 37.6256 66.1546 38.2261 66.1546 39.4086C66.1546 40.3139 65.5264 40.8867 64.7135 41.0438L66.6812 43.9076H65.9791ZM63.0414 38.1892V40.5264C63.4201 40.5541 63.8081 40.5726 64.2331 40.5726C64.9352 40.5726 65.5357 40.1846 65.5357 39.4086C65.5357 38.531 64.9352 38.143 64.2331 38.143C63.8081 38.143 63.4201 38.1614 63.0414 38.1892Z"></path>
<path fill="white" d="M59.6503 40.628V43.5935C59.2161 43.8152 58.4956 44 57.5533 44C56.1213 44 54.5786 43.2055 54.5786 40.8128C54.5786 38.4201 56.1213 37.6256 57.5533 37.6256C58.3108 37.6256 58.939 37.8104 59.3732 38.0321V38.6326C58.9575 38.3739 58.2554 38.143 57.5533 38.143C56.3061 38.143 55.1975 38.8728 55.1975 40.8128C55.1975 42.7528 56.3708 43.4827 57.5533 43.4827C58.163 43.4827 58.6803 43.4088 59.0591 43.3164V41.1454L57.9043 41.1546L57.9505 40.628H59.6503Z"></path>
<path fill="white" d="M51.3184 43.9077L50.4777 41.7459H47.8725L47.0226 43.9077H46.4036L48.9164 37.7181H49.4984L51.9743 43.9077H51.3184ZM48.085 41.2286H50.2744L49.2305 38.531L49.1936 38.2262H49.1751L49.1381 38.531L48.085 41.2286Z"></path>
<path fill="white" d="M43.3893 43.9076L41.477 41.09C41.1167 41.0807 40.7749 41.0622 40.4515 41.0438V43.9076H39.8695V37.718C40.433 37.6718 40.9873 37.6256 41.6432 37.6256C42.6779 37.6256 43.5648 38.2261 43.5648 39.4086C43.5648 40.3139 42.9366 40.8867 42.1236 41.0438L44.0914 43.9076H43.3893ZM40.4515 38.1892V40.5264C40.8303 40.5541 41.2183 40.5726 41.6432 40.5726C42.3453 40.5726 42.9458 40.1846 42.9458 39.4086C42.9458 38.531 42.3453 38.143 41.6432 38.143C41.2183 38.143 40.8303 38.1614 40.4515 38.1892Z"></path>
<path fill="white" d="M37.0516 38.2354H34.2339V40.6374H36.8668L36.8206 41.1547H34.2339V43.9077H33.6519V37.7181H37.0516V38.2354Z"></path>
</svg>
